<svg width="297" height="297" viewBox="0 0 297 297" fill="none" xmlns="http://www.w3.org/2000/svg">
<path d="M46.6765 194.462C21.2925 169.078 21.2925 127.922 46.6765 102.538L102.538 46.6766C127.922 21.2925 169.078 21.2925 194.462 46.6766L250.323 102.538C275.707 127.922 275.707 169.078 250.323 194.462L194.462 250.323C169.078 275.707 127.922 275.707 102.538 250.323L46.6765 194.462Z" fill="#1DD094" fill-opacity="0.2"/>
<path d="M90.8388 160.629C85.9573 155.748 85.9573 147.833 90.8388 142.952V142.952C95.7204 138.07 103.635 138.07 108.517 142.952L141.751 176.186C146.632 181.067 146.632 188.982 141.751 193.863V193.863C136.869 198.745 128.954 198.745 124.073 193.863L90.8388 160.629Z" fill="#1DD094"/>
<path d="M188.419 111.839C193.301 106.957 201.216 106.957 206.097 111.839V111.839C210.979 116.72 210.979 124.635 206.097 129.517L141.75 193.863C136.869 198.745 128.954 198.745 124.073 193.863V193.863C119.191 188.982 119.191 181.067 124.073 176.186L188.419 111.839Z" fill="#1DD094"/>
</svg>
